<svg xmlns="http://www.w3.org/2000/svg" viewBox="0 0 360 452" role="img" aria-label="Logo del equipo GEMA: cara de muppet mitad roja mitad azul colgada de una barra de dominadas, con la palabra GEMA en un cartel dorado">
  <defs>
    <linearGradient id="split" gradientUnits="userSpaceOnUse" x1="0" y1="0" x2="360" y2="0">
      <stop offset="0%" stop-color="#e0392b"/><stop offset="49.7%" stop-color="#e0392b"/>
      <stop offset="50.3%" stop-color="#2f73d8"/><stop offset="100%" stop-color="#2f73d8"/>
    </linearGradient>
    <linearGradient id="splitDark" gradientUnits="userSpaceOnUse" x1="0" y1="0" x2="360" y2="0">
      <stop offset="0%" stop-color="#b8281d"/><stop offset="49.7%" stop-color="#b8281d"/>
      <stop offset="50.3%" stop-color="#214f9c"/><stop offset="100%" stop-color="#214f9c"/>
    </linearGradient>
  </defs>

  <g id="gemaEmblem">
    <circle cx="180" cy="175" r="165" fill="#102a4d"/>
    <circle cx="180" cy="175" r="165" fill="none" stroke="#f3b53f" stroke-width="10"/>
    <circle cx="180" cy="175" r="151" fill="none" stroke="#ffffff" stroke-opacity="0.12" stroke-width="2"/>

    <rect x="66" y="74" width="228" height="13" rx="6.5" fill="#cfd6df"/>
    <circle cx="66" cy="80.5" r="9" fill="#9aa3b0"/>
    <circle cx="294" cy="80.5" r="9" fill="#9aa3b0"/>

    <rect x="116" y="80" width="26" height="112" rx="13" fill="#e0392b" transform="rotate(10 129 136)"/>
    <rect x="218" y="80" width="26" height="112" rx="13" fill="#2f73d8" transform="rotate(-10 231 136)"/>

    <g>
      <rect x="104" y="62" width="48" height="40" rx="16" fill="#e0392b"/>
      <circle cx="114" cy="64" r="6" fill="#c9301f"/><circle cx="128" cy="62" r="6" fill="#c9301f"/><circle cx="142" cy="64" r="6" fill="#c9301f"/>
    </g>
    <g>
      <rect x="208" y="62" width="48" height="40" rx="16" fill="#2f73d8"/>
      <circle cx="218" cy="64" r="6" fill="#2a63bf"/><circle cx="232" cy="62" r="6" fill="#2a63bf"/><circle cx="246" cy="64" r="6" fill="#2a63bf"/>
    </g>

    <ellipse cx="88" cy="206" rx="17" ry="25" fill="url(#split)"/>
    <ellipse cx="272" cy="206" rx="17" ry="25" fill="url(#split)"/>
    <ellipse cx="180" cy="200" rx="94" ry="106" fill="url(#split)"/>

    <path d="M92,152 Q97,116 111,150 Q121,102 139,148 Q151,94 173,146 Q187,92 207,146 Q223,98 241,150 Q253,108 269,152 Q273,130 277,154 L92,154 Z" fill="#2a2018"/>

    <rect x="118" y="158" width="50" height="15" rx="7.5" fill="#2a2018" transform="rotate(-7 143 165)"/>
    <rect x="192" y="158" width="50" height="15" rx="7.5" fill="#2a2018" transform="rotate(7 217 165)"/>

    <ellipse cx="146" cy="200" rx="28" ry="31" fill="#fbfbf8"/>
    <ellipse cx="214" cy="200" rx="28" ry="31" fill="#fbfbf8"/>
    <circle cx="151" cy="205" r="12.5" fill="#4a3320"/>
    <circle cx="209" cy="205" r="12.5" fill="#4a3320"/>
    <circle cx="146" cy="199" r="4" fill="#ffffff"/>
    <circle cx="204" cy="199" r="4" fill="#ffffff"/>

    <ellipse cx="180" cy="234" rx="20" ry="17" fill="url(#splitDark)"/>
    <ellipse cx="174" cy="229" rx="6" ry="4" fill="#ffffff" opacity="0.25"/>

    <path d="M122,256 Q180,246 238,256 Q232,301 180,305 Q128,301 122,256 Z" fill="#6e1812"/>
    <path d="M133,254 Q180,248 227,254 L225,269 Q180,262 135,269 Z" fill="#fcfcfa"/>
    <line x1="157" y1="255" x2="157" y2="268" stroke="#d8d3c8" stroke-width="1.2"/>
    <line x1="180" y1="254" x2="180" y2="268" stroke="#d8d3c8" stroke-width="1.2"/>
    <line x1="203" y1="255" x2="203" y2="268" stroke="#d8d3c8" stroke-width="1.2"/>
    <ellipse cx="180" cy="296" rx="20" ry="11" fill="#d8443a"/>

    <g fill="#2a2018" opacity="0.5">
      <circle cx="100" cy="235" r="2.4"/><circle cx="108" cy="252" r="2.4"/><circle cx="96" cy="220" r="2.4"/>
      <circle cx="112" cy="270" r="2.4"/><circle cx="120" cy="255" r="2.4"/><circle cx="104" cy="285" r="2.4"/>
      <circle cx="260" cy="235" r="2.4"/><circle cx="252" cy="252" r="2.4"/><circle cx="264" cy="220" r="2.4"/>
      <circle cx="248" cy="270" r="2.4"/><circle cx="240" cy="255" r="2.4"/><circle cx="256" cy="285" r="2.4"/>
    </g>
  </g>

  <g id="gemaBanner">
    <rect x="86" y="384" width="188" height="54" rx="13" fill="#f3b53f"/>
    <text x="180" y="423" text-anchor="middle" font-family="Arial Black, Arial, sans-serif" font-weight="900" font-size="40" letter-spacing="4" fill="#102a4d">GEMA</text>
  </g>
</svg>
